<svg id="visual" viewBox="0 0 900 600" width="900" height="600" xmlns="http://www.w3.org/2000/svg" xmlns:xlink="http://www.w3.org/1999/xlink" version="1.1"><g stroke-width="1" stroke-linejoin="bevel"><path d="M468 289L406 329L498 361Z" fill="#081a28" stroke="#081a28"></path><path d="M406 329L400 372L498 361Z" fill="#297ea6" stroke="#297ea6"></path><path d="M377 208L326 332L406 329Z" fill="#112e42" stroke="#112e42"></path><path d="M406 329L326 332L400 372Z" fill="#205a7a" stroke="#205a7a"></path><path d="M498 361L587 309L468 289Z" fill="#15384f" stroke="#15384f"></path><path d="M519 195L377 208L468 289Z" fill="#205a7a" stroke="#205a7a"></path><path d="M468 289L377 208L406 329Z" fill="#112e42" stroke="#112e42"></path><path d="M587 309L519 195L468 289Z" fill="#277297" stroke="#277297"></path><path d="M392 483L516 483L400 372Z" fill="#112e42" stroke="#112e42"></path><path d="M400 372L516 483L498 361Z" fill="#081a28" stroke="#081a28"></path><path d="M498 361L620 423L587 309Z" fill="#205a7a" stroke="#205a7a"></path><path d="M265 361L392 483L400 372Z" fill="#297ea6" stroke="#297ea6"></path><path d="M516 483L620 423L498 361Z" fill="#205a7a" stroke="#205a7a"></path><path d="M203 273L265 361L326 332Z" fill="#15384f" stroke="#15384f"></path><path d="M326 332L265 361L400 372Z" fill="#00101c" stroke="#00101c"></path><path d="M334 117L336 165L380 72Z" fill="#205a7a" stroke="#205a7a"></path><path d="M377 208L336 165L326 332Z" fill="#112e42" stroke="#112e42"></path><path d="M685 226L621 176L587 309Z" fill="#081a28" stroke="#081a28"></path><path d="M587 309L621 176L519 195Z" fill="#297ea6" stroke="#297ea6"></path><path d="M380 72L336 165L377 208Z" fill="#277297" stroke="#277297"></path><path d="M516 483L584 531L620 423Z" fill="#00101c" stroke="#00101c"></path><path d="M517 600L584 531L516 483Z" fill="#297ea6" stroke="#297ea6"></path><path d="M685 533L687 376L620 423Z" fill="#15384f" stroke="#15384f"></path><path d="M620 423L687 376L587 309Z" fill="#277297" stroke="#277297"></path><path d="M687 376L691 294L587 309Z" fill="#246688" stroke="#246688"></path><path d="M203 273L219 398L265 361Z" fill="#0c2435" stroke="#0c2435"></path><path d="M265 361L283 512L392 483Z" fill="#112e42" stroke="#112e42"></path><path d="M219 398L283 512L265 361Z" fill="#0c2435" stroke="#0c2435"></path><path d="M392 483L517 600L516 483Z" fill="#1d4e6b" stroke="#1d4e6b"></path><path d="M505 88L377 208L519 195Z" fill="#112e42" stroke="#112e42"></path><path d="M336 165L203 273L326 332Z" fill="#297ea6" stroke="#297ea6"></path><path d="M621 176L505 88L519 195Z" fill="#205a7a" stroke="#205a7a"></path><path d="M691 294L685 226L587 309Z" fill="#0c2435" stroke="#0c2435"></path><path d="M182 208L203 273L336 165Z" fill="#1d4e6b" stroke="#1d4e6b"></path><path d="M389 600L517 600L392 483Z" fill="#1d4e6b" stroke="#1d4e6b"></path><path d="M283 512L389 600L392 483Z" fill="#297ea6" stroke="#297ea6"></path><path d="M505 88L380 72L377 208Z" fill="#205a7a" stroke="#205a7a"></path><path d="M219 398L238 526L283 512Z" fill="#19435d" stroke="#19435d"></path><path d="M283 512L304 600L389 600Z" fill="#246688" stroke="#246688"></path><path d="M621 176L572 63L505 88Z" fill="#0c2435" stroke="#0c2435"></path><path d="M505 88L475 0L380 72Z" fill="#19435d" stroke="#19435d"></path><path d="M716 73L572 63L621 176Z" fill="#205a7a" stroke="#205a7a"></path><path d="M208 133L182 208L336 165Z" fill="#246688" stroke="#246688"></path><path d="M203 273L127 318L219 398Z" fill="#19435d" stroke="#19435d"></path><path d="M219 398L89 423L238 526Z" fill="#297ea6" stroke="#297ea6"></path><path d="M208 133L336 165L334 117Z" fill="#15384f" stroke="#15384f"></path><path d="M613 600L685 533L584 531Z" fill="#205a7a" stroke="#205a7a"></path><path d="M584 531L685 533L620 423Z" fill="#0c2435" stroke="#0c2435"></path><path d="M687 376L792 391L691 294Z" fill="#112e42" stroke="#112e42"></path><path d="M238 526L304 600L283 512Z" fill="#1d4e6b" stroke="#1d4e6b"></path><path d="M517 600L613 600L584 531Z" fill="#15384f" stroke="#15384f"></path><path d="M282 0L208 133L334 117Z" fill="#246688" stroke="#246688"></path><path d="M91 182L127 318L182 208Z" fill="#15384f" stroke="#15384f"></path><path d="M182 208L127 318L203 273Z" fill="#00101c" stroke="#00101c"></path><path d="M572 63L475 0L505 88Z" fill="#297ea6" stroke="#297ea6"></path><path d="M380 72L282 0L334 117Z" fill="#205a7a" stroke="#205a7a"></path><path d="M475 0L401 0L380 72Z" fill="#1d4e6b" stroke="#1d4e6b"></path><path d="M804 467L792 391L687 376Z" fill="#15384f" stroke="#15384f"></path><path d="M691 294L799 287L685 226Z" fill="#1d4e6b" stroke="#1d4e6b"></path><path d="M792 391L799 287L691 294Z" fill="#00101c" stroke="#00101c"></path><path d="M685 226L716 73L621 176Z" fill="#205a7a" stroke="#205a7a"></path><path d="M613 600L698 600L685 533Z" fill="#081a28" stroke="#081a28"></path><path d="M685 533L804 467L687 376Z" fill="#081a28" stroke="#081a28"></path><path d="M785 166L716 73L685 226Z" fill="#205a7a" stroke="#205a7a"></path><path d="M572 63L617 0L475 0Z" fill="#19435d" stroke="#19435d"></path><path d="M799 287L785 166L685 226Z" fill="#15384f" stroke="#15384f"></path><path d="M801 600L804 467L685 533Z" fill="#0c2435" stroke="#0c2435"></path><path d="M900 374L900 302L799 287Z" fill="#297ea6" stroke="#297ea6"></path><path d="M716 73L617 0L572 63Z" fill="#277297" stroke="#277297"></path><path d="M127 318L89 423L219 398Z" fill="#112e42" stroke="#112e42"></path><path d="M238 526L172 600L304 600Z" fill="#112e42" stroke="#112e42"></path><path d="M208 133L138 131L182 208Z" fill="#112e42" stroke="#112e42"></path><path d="M127 318L0 399L89 423Z" fill="#205a7a" stroke="#205a7a"></path><path d="M168 0L138 131L208 133Z" fill="#246688" stroke="#246688"></path><path d="M401 0L282 0L380 72Z" fill="#00101c" stroke="#00101c"></path><path d="M73 497L172 600L238 526Z" fill="#297ea6" stroke="#297ea6"></path><path d="M138 131L91 182L182 208Z" fill="#112e42" stroke="#112e42"></path><path d="M0 399L73 497L89 423Z" fill="#112e42" stroke="#112e42"></path><path d="M89 423L73 497L238 526Z" fill="#0c2435" stroke="#0c2435"></path><path d="M794 0L708 0L716 73Z" fill="#246688" stroke="#246688"></path><path d="M716 73L708 0L617 0Z" fill="#15384f" stroke="#15384f"></path><path d="M698 600L801 600L685 533Z" fill="#1d4e6b" stroke="#1d4e6b"></path><path d="M73 497L106 600L172 600Z" fill="#00101c" stroke="#00101c"></path><path d="M900 178L818 92L785 166Z" fill="#246688" stroke="#246688"></path><path d="M785 166L818 92L716 73Z" fill="#297ea6" stroke="#297ea6"></path><path d="M900 178L785 166L799 287Z" fill="#081a28" stroke="#081a28"></path><path d="M799 287L792 391L900 374Z" fill="#0c2435" stroke="#0c2435"></path><path d="M282 0L168 0L208 133Z" fill="#246688" stroke="#246688"></path><path d="M0 93L0 200L91 182Z" fill="#297ea6" stroke="#297ea6"></path><path d="M900 374L792 391L804 467Z" fill="#15384f" stroke="#15384f"></path><path d="M900 526L900 374L804 467Z" fill="#00101c" stroke="#00101c"></path><path d="M0 269L0 399L127 318Z" fill="#081a28" stroke="#081a28"></path><path d="M73 497L0 536L106 600Z" fill="#297ea6" stroke="#297ea6"></path><path d="M0 200L0 269L91 182Z" fill="#246688" stroke="#246688"></path><path d="M91 182L0 269L127 318Z" fill="#205a7a" stroke="#205a7a"></path><path d="M900 302L900 178L799 287Z" fill="#205a7a" stroke="#205a7a"></path><path d="M0 93L91 182L138 131Z" fill="#00101c" stroke="#00101c"></path><path d="M900 0L794 0L818 92Z" fill="#205a7a" stroke="#205a7a"></path><path d="M818 92L794 0L716 73Z" fill="#277297" stroke="#277297"></path><path d="M168 0L115 0L138 131Z" fill="#19435d" stroke="#19435d"></path><path d="M801 600L900 526L804 467Z" fill="#246688" stroke="#246688"></path><path d="M0 399L0 536L73 497Z" fill="#112e42" stroke="#112e42"></path><path d="M900 178L900 91L818 92Z" fill="#081a28" stroke="#081a28"></path><path d="M115 0L0 93L138 131Z" fill="#277297" stroke="#277297"></path><path d="M801 600L900 600L900 526Z" fill="#0c2435" stroke="#0c2435"></path><path d="M0 536L0 600L106 600Z" fill="#00101c" stroke="#00101c"></path><path d="M900 91L900 0L818 92Z" fill="#205a7a" stroke="#205a7a"></path><path d="M115 0L0 0L0 93Z" fill="#081a28" stroke="#081a28"></path></g></svg>