<svg id="visual" viewBox="0 0 900 600" width="900" height="600" xmlns="http://www.w3.org/2000/svg" xmlns:xlink="http://www.w3.org/1999/xlink" version="1.1"><rect x="0" y="0" width="900" height="600" fill="#002233"></rect><path d="M0 506L16.7 497.7C33.3 489.3 66.7 472.7 100 471C133.3 469.3 166.7 482.7 200 486.7C233.3 490.7 266.7 485.3 300 467.3C333.3 449.3 366.7 418.7 400 421.7C433.3 424.7 466.7 461.3 500 472.3C533.3 483.3 566.7 468.7 600 462.7C633.3 456.7 666.7 459.3 700 462.5C733.3 465.7 766.7 469.3 800 467.3C833.3 465.3 866.7 457.7 883.3 453.8L900 450L900 601L883.3 601C866.7 601 833.3 601 800 601C766.7 601 733.3 601 700 601C666.7 601 633.3 601 600 601C566.7 601 533.3 601 500 601C466.7 601 433.3 601 400 601C366.7 601 333.3 601 300 601C266.7 601 233.3 601 200 601C166.7 601 133.3 601 100 601C66.7 601 33.3 601 16.7 601L0 601Z" fill="#0066FF" stroke-linecap="round" stroke-linejoin="miter"></path></svg>